<svg version="1.2" xmlns="http://www.w3.org/2000/svg" viewBox="0 0 2500 1600" width="2500" height="1600">
	<title>vecteezy_neon-background_dp1220-ai</title>
	<defs>
		<linearGradient id="g1" x1="2225.9" y1="1884.8" x2="1757.9" y2="1384.8" gradientUnits="userSpaceOnUse">
			<stop offset="0" stop-color="#4e4f51"/>
			<stop offset="1" stop-color="#686d6f"/>
		</linearGradient>
		<linearGradient id="g2" x1="1234.7" y1="1947.7" x2="1051.6" y2="834.5" gradientUnits="userSpaceOnUse">
			<stop offset="0" stop-color="#4e4f51"/>
			<stop offset="1" stop-color="#6b6d71"/>
		</linearGradient>
		<linearGradient id="g3" x1="2411.7" y1="-102.1" x2="2171.7" y2="397.9" gradientUnits="userSpaceOnUse">
			<stop offset="0" stop-color="#4e4f51"/>
			<stop offset="1" stop-color="#767677"/>
		</linearGradient>
		<linearGradient id="g4" x1="3320.1" y1="716.1" x2="2524.1" y2="1188.1" gradientUnits="userSpaceOnUse">
			<stop offset="0" stop-color="#4e4f51"/>
			<stop offset="1" stop-color="#707070"/>
		</linearGradient>
	</defs>
	<style>
		.s0 { fill: #000000 } 
		.s1 { fill: #4e4f51 } 
		.s2 { fill: url(#g1) } 
		.s3 { fill: url(#g2) } 
		.s4 { fill: url(#g3) } 
		.s5 { fill: url(#g4) } 
	</style>
	<g id="Bakcground">
		<path id="&lt;Path&gt;" class="s0" d="m2500 1600h-2500v-1600h2500z"/>
	</g>
	<g id="Object">
		<g id="&lt;Group&gt;">
			<g id="&lt;Group&gt;">
				<path id="&lt;Path&gt;" class="s1" d="m1865.6 1003.2l575.3 575.3-2.5 2.5-19 19h-9.9l21.5-21.5-567.9-567.9-567.9 567.9 21.5 21.5h-9.9l-21.5-21.5 577.8-577.8z"/>
				<path id="&lt;Path&gt;" class="s1" d="m2500 327.1l-337.4 337.4-577.9-577.8 2.5-2.5 84.2-84.2h9.9l-86.7 86.7 568 567.9 337.4-337.4z"/>
				<path id="&lt;Path&gt;" class="s1" d="m2493.9 228.5l6.1 6.1v14.2l-6.1-6.2-516.9 516.9 516.9 516.9 6.1-6.2v14.2l-6.1 6.1-3.6-3.5-527.5-527.5 3.6-3.5z"/>
				<path id="&lt;Compound Path&gt;" fill-rule="evenodd" class="s1" d="m1934.9 1402.6l-3-3-444.9-445 3-3 444.9-444.9 448 447.9-3 3zm-436-447.9l436 436 436-436-436-436.1z"/>
				<path id="&lt;Path&gt;" class="s1" d="m1779.2 0h14.1l28.9 28.8-418.2 419.6-3.5-3.5-416.1-414.7 30.1-30.2h14.1l-30.1 30.2 405.5 404.1 404.1-405.5z"/>
			</g>
			<g id="&lt;Group&gt;">
				<path id="&lt;Path&gt;" class="s2" d="m2029.1 1600h-53.7l-207.7-207.7 619.2-619.2 113.1 113.1v53.7l-113.1-113-565.4 565.4z"/>
				<g id="&lt;Group&gt;" style="mix-blend-mode: color-dodge">
				</g>
				<path id="&lt;Path&gt;" class="s3" d="m2500 1344.9l-255.1 255.1h-53.8l257.1-257.1-628.6-628.6-628.6 628.6 257.1 257.1h-53.8l-257-257.1 682.3-682.3 680.4 680.4z"/>
				<path id="&lt;Path&gt;" class="s4" d="m1819.6 540.8l-540.8-540.8h53.7l487.1 487.1 487.1-487.1h53.7z"/>
				<path id="&lt;Path&gt;" class="s5" d="m1908.3 608.4l591.7-591.8v53.8l-538 538 538 538v53.7z"/>
			</g>
		</g>
	</g>
</svg>